<?xml version="1.0" encoding="UTF-8" standalone="no"?>
<!-- Created with Inkscape (http://www.inkscape.org/) -->

<svg
   width="212.14285mm"
   height="212.14285mm"
   viewBox="0 0 212.14285 212.14285"
   version="1.1"
   id="svg1"
   xml:space="preserve"
   inkscape:version="1.4 (86a8ad7, 2024-10-11)"
   sodipodi:docname="drawing.svg"
   xmlns:inkscape="http://www.inkscape.org/namespaces/inkscape"
   xmlns:sodipodi="http://sodipodi.sourceforge.net/DTD/sodipodi-0.dtd"
   xmlns="http://www.w3.org/2000/svg"
   xmlns:svg="http://www.w3.org/2000/svg"><sodipodi:namedview
     id="namedview1"
     pagecolor="#ffffff"
     bordercolor="#999999"
     borderopacity="1"
     inkscape:showpageshadow="2"
     inkscape:pageopacity="0"
     inkscape:pagecheckerboard="0"
     inkscape:deskcolor="#d1d1d1"
     inkscape:document-units="mm"
     inkscape:zoom="0.51591118"
     inkscape:cx="787.92632"
     inkscape:cy="460.35056"
     inkscape:window-width="1920"
     inkscape:window-height="1009"
     inkscape:window-x="1912"
     inkscape:window-y="-8"
     inkscape:window-maximized="1"
     inkscape:current-layer="layer1"
     showguides="true"><sodipodi:guide
       position="92.083113,125.08971"
       orientation="1,0"
       id="guide1"
       inkscape:locked="false" /><sodipodi:guide
       position="-11.511917,110.73"
       orientation="0,-1"
       id="guide2"
       inkscape:locked="false" /></sodipodi:namedview><defs
     id="defs1" /><g
     inkscape:label="Layer 1"
     inkscape:groupmode="layer"
     id="layer1"
     transform="translate(-1.1937866,7.3971181)"><rect
       style="fill:#282828;fill-opacity:1;stroke:none;stroke-width:3;stroke-linecap:round;stroke-dasharray:none;stroke-opacity:1;paint-order:stroke fill markers"
       id="rect3"
       width="212.14285"
       height="212.14285"
       x="-7.3971181"
       y="-213.33664"
       transform="rotate(90)"
       rx="24.296705"
       ry="24.296705"
       inkscape:export-filename="fevicon.png"
       inkscape:export-xdpi="96"
       inkscape:export-ydpi="96" /><g
       id="g1"
       transform="translate(14.287503)"><path
         style="fill:#fabd2f;fill-opacity:1;stroke:#000000;stroke-width:1;stroke-dasharray:none;stroke-opacity:0"
         d="M 86.121879,160.06423 C 28.116809,153.42609 10.163289,76.801359 58.968319,44.17425 83.343339,27.879077 115.60471,31.851906 136.34854,53.703243 l 2.33709,2.461861 1.63166,-1.572465 c 1.71481,-1.652593 4.18011,-3.891957 11.0195,-10.009607 2.2781,-2.037697 8.05058,-7.276778 12.82775,-11.642403 12.77012,-11.669998 13.13482,-11.996333 14.40296,-12.887822 7.04138,-4.949999 16.29812,0.04298 16.29812,8.791013 0,5.209149 0.31047,4.800862 -13.49756,17.7502 -11.16145,10.467345 -27.32365,25.51128 -29.83267,27.768548 l -1.3397,1.205275 0.70124,2.498892 c 12.26672,43.712485 -21.85702,86.909075 -64.775051,81.997495 z m 8.59896,-5.71256 c 13.524081,-3.77132 11.503441,-23.24027 -2.91042,-28.04202 -1.6764,-0.55847 -47.88958,-0.94176 -47.88958,-0.3972 0,0.14276 0.74414,1.36859 1.65364,2.72407 l 1.65365,2.46452 20.83544,0.0472 c 24.84754,0.0563 23.90408,-0.0687 27.4029,3.6308 6.655581,7.0373 -0.10845,18.45601 -8.27932,13.97673 -4.62881,-2.53752 -2.15955,-7.85137 2.55541,-5.49924 2.85183,1.42269 3.93401,-2.49029 1.36388,-4.93159 -4.1771,-3.96771 -12.03129,-0.41035 -12.46607,5.64621 -0.53603,7.46704 7.62836,12.73743 16.08047,10.38049 z m 18.983851,-4.87666 c 2.9128,-1.42703 2.80095,-1.57293 -1.2058,-1.57293 h -3.3886 l -0.89412,1.91823 c -0.49177,1.05503 -0.93819,1.99805 -0.99205,2.09562 -0.17628,0.3193 4.24762,-1.34697 6.48057,-2.44092 z m -40.326671,0.0592 -0.70424,-1.63214 h -2.79367 c -3.3372,0 -3.26893,0.11432 1.28252,2.1478 3.28952,1.46967 3.09186,1.51568 2.21539,-0.51566 z m -0.77102,-8.94036 c 0.24205,-0.96359 0.67566,-2.21374 0.96359,-2.77813 l 0.5235,-1.02615 h -10.85329 c -5.96931,0 -10.8533,0.0919 -10.8533,0.20428 0,0.26728 4.17341,4.35578 5.01981,4.91768 0.56554,0.37544 1.60984,0.43429 7.7069,0.43429 h 7.05271 z m 55.735871,0.0652 c 1.08043,-0.92773 2.35698,-2.17789 2.83678,-2.77812 l 0.87237,-1.09134 -7.35466,0.008 c -4.88281,0.006 -8.28836,0.13613 -10.13278,0.38849 -1.52797,0.20906 -3.29688,0.38388 -3.93091,0.38849 -0.94062,0.007 -1.12323,0.0854 -0.99219,0.4269 0.0883,0.23018 0.1606,1.30174 0.1606,2.38125 v 1.96273 h 8.28819 8.28819 z m -12.37463,-10.30049 c 6.22131,-3.07474 8.75186,-10.43047 5.97452,-17.36655 -1.66323,-4.15372 -1.87045,-4.0845 12.71805,-4.24825 l 11.78606,-0.13229 0.45628,-2.51354 c 1.36861,-7.539431 0.71002,-18.572295 -1.5324,-25.670787 -0.81246,-2.571894 0.50673,-2.705421 -10.72897,1.085986 -9.63952,3.252789 -10.14152,3.373251 -10.65557,2.556979 -0.36423,-0.57836 -0.39164,-0.502683 5.08984,-14.051332 2.78331,-6.879519 4.19278,-10.679537 4.0535,-10.928423 C 130.68947,54.730158 118.85642,46.403817 110.55414,43.20512 78.542979,30.871888 42.398209,53.064808 37.162579,88.267608 c -0.83453,5.611116 -0.49787,17.277792 0.57961,20.085642 0.13139,0.34239 28.6685,0.77881 28.66828,0.43843 -3e-5,-0.0464 -0.72635,-0.83557 -1.61404,-1.75372 -3.36884,-3.48439 -3.37354,-3.41763 0.51009,-7.247023 4.82404,-4.756668 5.67337,-6.355917 6.66105,-12.542465 1.27356,-7.977152 6.1545,-15.546387 10.02494,-15.546387 0.64706,0 0.46128,-0.544175 -0.54797,-1.605119 -11.87106,-12.47907 1.99051,-31.190777 17.49621,-23.618099 8.806411,4.300879 10.577841,16.612701 3.411141,23.708136 l -1.05776,1.047241 1.72512,1.033158 c 5.18996,3.108225 7.26751,6.446404 8.49476,13.649254 1.32552,7.779669 2.00178,9.109366 7.11842,13.996666 3.16864,3.026608 3.34062,3.317708 2.69627,4.563758 -0.44726,0.86491 -4.81049,5.07881 -5.96483,5.7607 -0.98669,0.58285 -0.98765,0.68268 -0.0183,1.89492 5.27788,6.60044 0.30533,16.80356 -6.49784,13.33284 -3.33054,-1.69911 -2.71311,-5.92661 0.80519,-5.5131 3.44726,0.40516 2.56219,-4.52161 -0.93805,-5.22166 -0.45705,-0.0914 -16.282591,-0.1662 -35.167871,-0.1662 h -34.33687 l 0.34799,1.12448 c 0.1914,0.61847 0.62021,1.86862 0.95291,2.77813 l 0.60491,1.65364 h 29.30668 c 33.344321,0 29.57094,-0.30375 30.150391,2.42708 1.50297,7.08312 9.08452,10.92956 15.39523,7.81064 z m 10.21766,-26.88611 c -1.48402,-1.48402 -0.83315,-3.37239 1.40941,-4.089102 0.41303,-0.132002 0.46302,-0.564398 0.46302,-4.004768 0,-5.003008 -0.26533,-4.715716 5.70488,-6.177036 7.17136,-1.755325 6.83086,-1.972666 6.94784,4.434811 0.13381,7.329005 -0.45514,8.801505 -3.52029,8.801505 -3.30141,0 -3.77693,-3.891139 -0.59962,-4.906595 0.62539,-0.19987 0.70504,-4.397921 0.0834,-4.397921 -0.40827,0 -3.94994,0.714312 -4.71365,0.950685 -0.4144,0.128258 -0.46302,0.565925 -0.46302,4.167648 0,4.402153 -0.12461,4.840803 -1.59043,5.598803 -1.29701,0.67071 -2.8284,0.51516 -3.72159,-0.37803 z m -78.827191,-2.11966 c -7.90203,-2.403688 -5.05972,-14.383562 2.92714,-12.337424 0.88838,0.227591 1.72467,0.413802 1.85844,0.413802 0.14177,0 0.24321,-2.921852 0.24321,-7.005359 v -7.005358 l 0.64372,-0.421779 c 0.88269,-0.578358 1.47068,-0.218936 2.76863,1.692386 1.28499,1.892234 2.64089,3.106706 4.22803,3.787035 1.33857,0.573778 1.60998,0.864817 1.61599,1.732872 0.012,1.731229 -2.64685,2.16671 -4.74627,0.777375 -0.58254,-0.385507 -1.09149,-0.700244 -1.13099,-0.699416 -0.0395,8.29e-4 -0.11379,3.18575 -0.1651,7.077604 -0.13528,10.262166 -2.51919,13.729302 -8.2428,11.988262 z m 2.98824,-3.744085 c 0.3466,-0.157921 0.82845,-0.622776 1.07078,-1.033011 1.62737,-2.754912 -1.98387,-5.608458 -4.38386,-3.464063 -2.43394,2.174719 0.29131,5.873884 3.31308,4.497074 z m 4.92135,-26.038817 c -1.93273,-1.05042 -1.2833,-4.630302 0.83999,-4.630302 0.43125,0 0.48218,-0.360385 0.55963,-3.960044 0.10593,-4.922901 -0.24949,-4.539684 5.55536,-5.989943 7.53087,-1.881482 7.09756,-2.225808 7.09756,5.639946 v 5.834751 l -0.84073,0.821969 c -0.91022,0.889906 -2.16857,1.257078 -3.32472,0.970118 -2.58817,-0.642389 -2.61135,-4.057289 -0.0336,-4.955885 0.74986,-0.261403 0.75949,-0.291286 0.75949,-2.355545 0,-2.539231 0.51824,-2.416632 -4.93204,-1.166764 -0.54199,0.12429 -0.57054,0.298852 -0.66196,4.047112 -0.13165,5.397333 -1.91087,7.433797 -5.01895,5.744587 z M 116.47439,69.95391 c -3.29551,-1.68033 -2.70441,-6.929865 0.86832,-7.711524 4.37784,-0.957805 6.76831,4.487927 3.17359,7.229755 -1.17105,0.893203 -2.84393,1.092599 -4.04191,0.481769 z m 20.48169,61.07693 c 0.26956,-0.17537 3.27308,-4.95972 3.27308,-5.21374 0,-0.0583 -2.84471,-0.11695 -6.32159,-0.13039 l -6.32159,-0.0244 -0.83604,1.78657 c -0.45982,0.98261 -1.12745,2.16863 -1.48362,2.63559 -0.35616,0.46696 -0.64757,0.91649 -0.64757,0.99896 0,0.22416 11.9905,0.17309 12.33733,-0.0525 z m 6.68715,-12.43136 c 0.31249,-0.83675 0.73803,-2.0869 0.94564,-2.77813 l 0.37748,-1.25677 h -8.09399 -8.09399 l 0.16685,1.38907 c 0.0918,0.76398 0.16788,2.01414 0.16915,2.77812 l 0.002,1.38906 h 6.97919 6.9792 z m -41.77758,-12.19072 c -6.487091,-6.50342 -9.064551,-17.041766 -4.382881,-17.920053 1.96561,-0.368751 2.943111,0.718523 3.320251,3.693129 1.0275,8.104074 9.16408,15.698954 12.74037,11.892174 l 0.59535,-0.63373 -1.30843,-1.25229 c -4.19124,-4.0114 -5.39285,-6.516225 -6.84177,-14.262004 -1.74524,-9.32985 -5.28377,-12.511913 -13.913541,-12.511913 -8.68257,0 -12.70419,3.450155 -14.17763,12.163011 -1.23264,7.288926 -2.41434,9.935629 -6.13074,13.731166 -2.47806,2.53083 -2.48117,2.62979 -0.11762,3.74079 1.51734,0.71323 2.36637,0.37452 5.11404,-2.04018 4.01206,-3.525859 5.41486,-5.973305 6.18508,-10.790995 0.44814,-2.803092 1.23758,-3.847031 2.90916,-3.847031 5.56198,0 2.25896,12.976726 -4.82839,18.969526 l -1.65339,1.39805 11.97214,0.0688 c 6.58468,0.0378 12.219471,0.0896 12.521761,0.11507 0.39301,0.0331 -0.17791,-0.68309 -2.00376,-2.51354 z M 142.875,72.077289 c 1.67349,-0.514449 3.24306,-1.017686 3.48793,-1.118304 0.38558,-0.158435 3.31516,-2.818694 8.3598,-7.591274 l 1.39833,-1.322917 -3.71083,-3.698841 -3.71083,-3.698841 -1.78772,1.732243 c -3.27947,3.177698 -4.89395,4.49926 -6.46587,5.292764 -0.87155,0.439957 -1.66586,1.045524 -1.80163,1.373528 -0.62325,1.505723 -4.23585,11.376325 -4.23585,11.573504 0,0.122606 1.22039,-0.1887 2.71198,-0.69179 1.49159,-0.503091 4.0812,-1.335623 5.75469,-1.850072 z m -47.018711,-4.5389 c 4.367661,-1.940852 6.463071,-7.517062 4.428681,-11.785396 -4.250511,-8.91792 -17.285771,-6.17531 -17.328821,3.645968 -0.0293,6.679059 6.67177,10.907121 12.90014,8.139428 z m 66.838021,-11.438285 1.95993,-1.820871 -3.52296,-3.72399 c -4.15385,-4.390873 -3.40837,-4.168325 -5.82234,-1.738135 l -1.9726,1.985854 3.56305,3.570395 c 1.95968,1.963718 3.62423,3.565271 3.69901,3.559007 0.0748,-0.0063 1.01794,-0.83078 2.09591,-1.83226 z m 7.19385,-6.64214 c 0.34969,-0.301559 1.52876,-1.40893 2.62017,-2.460824 1.09141,-1.051894 3.82984,-3.620043 6.08542,-5.706998 2.25557,-2.086955 4.27295,-3.953713 4.48306,-4.148353 0.32698,-0.302907 -0.12641,-0.866722 -3.14721,-3.913682 l -3.52922,-3.559793 -3.20471,2.959074 c -1.76259,1.627491 -4.96002,4.552835 -7.1054,6.500764 -4.67561,4.245294 -4.61732,3.417167 -0.52801,7.500416 3.77735,3.771752 3.46787,3.569331 4.3259,2.829396 z m 19.06719,-19.216966 c 1.76948,-3.934628 -3.70515,-8.035805 -6.90368,-5.171723 l -1.10805,0.992188 3.10892,3.239799 3.10893,3.239799 0.64687,-0.593966 c 0.35578,-0.326681 0.87193,-1.094425 1.14701,-1.706097 z"
         id="path2"
         sodipodi:nodetypes="ssscssssssscsscssscssssssccsscsssscssssscsssscscsccscssccccssscssssscsssscsssssscssssscsssscsscsssscssssssssssccsssscssssssssssssssssscsssssssssssscsscssscccscccccccccsssscssssssssssccsssssscccsssssssscsscsscscsssssscsssssscccss" /><path
         style="fill:#000000;fill-opacity:0;stroke:#fabd2f;stroke-width:3;stroke-linecap:round;stroke-dasharray:none;stroke-opacity:1;paint-order:stroke fill markers"
         id="path3-9"
         sodipodi:type="arc"
         sodipodi:cx="92.215729"
         sodipodi:cy="99.281425"
         sodipodi:rx="78.963295"
         sodipodi:ry="78.963295"
         sodipodi:start="5.9500367"
         sodipodi:end="5.413132"
         sodipodi:arc-type="arc"
         d="M 166.83741,73.458838 A 78.963295,78.963295 0 0 1 127.79218,169.77623 78.963295,78.963295 0 0 1 27.115973,143.97173 78.963295,78.963295 0 0 1 39.215524,40.747843 78.963295,78.963295 0 0 1 143.13014,38.92478"
         sodipodi:open="true" /></g></g></svg>
