<svg width="20" height="20" viewBox="-0.025 0 0.5 0.5" xmlns="http://www.w3.org/2000/svg"><g fill="none" fill-rule="evenodd"><path d="M0.025 0.025v0.044c0 0.03 0.016 0.058 0.044 0.075l0.313 0.199c0.027 0.017 0.044 0.045 0.044 0.075V0.475H0.025v-0.056c0 -0.03 0.016 -0.058 0.044 -0.075l0.313 -0.199C0.409 0.127 0.425 0.099 0.425 0.069V0.025z" stroke="#EBDBB2" stroke-width="0.05" stroke-linecap="round" stroke-linejoin="round"/><path d="m0.22 0.321 -0.103 0.078a0.012 0.012 0 0 0 -0.003 0.015c0.002 0.003 0.005 0.005 0.008 0.005h0.206c0.005 0 0.009 -0.005 0.009 -0.011a0.011 0.011 0 0 0 -0.004 -0.009l-0.103 -0.078a0.008 0.008 0 0 0 -0.01 0" fill="#000"/></g></svg>
