<?xml version="1.0" encoding="UTF-8" standalone="no"?>
<!-- Created with Inkscape (http://www.inkscape.org/) -->

<svg
   width="212.14285mm"
   height="212.14285mm"
   viewBox="0 0 212.14285 212.14285"
   version="1.1"
   id="svg1"
   xml:space="preserve"
   inkscape:version="1.4 (86a8ad7, 2024-10-11)"
   sodipodi:docname="fevicon.svg"
   inkscape:export-filename="favicon.png"
   inkscape:export-xdpi="96"
   inkscape:export-ydpi="96"
   xmlns:inkscape="http://www.inkscape.org/namespaces/inkscape"
   xmlns:sodipodi="http://sodipodi.sourceforge.net/DTD/sodipodi-0.dtd"
   xmlns="http://www.w3.org/2000/svg"
   xmlns:svg="http://www.w3.org/2000/svg"><sodipodi:namedview
     id="namedview1"
     pagecolor="#ffffff"
     bordercolor="#999999"
     borderopacity="1"
     inkscape:showpageshadow="2"
     inkscape:pageopacity="0"
     inkscape:pagecheckerboard="0"
     inkscape:deskcolor="#d1d1d1"
     inkscape:document-units="mm"
     inkscape:zoom="0.091201074"
     inkscape:cx="2604.136"
     inkscape:cy="838.80592"
     inkscape:window-width="1920"
     inkscape:window-height="1009"
     inkscape:window-x="1912"
     inkscape:window-y="-8"
     inkscape:window-maximized="1"
     inkscape:current-layer="layer1"
     showguides="true"><sodipodi:guide
       position="43.153846,151.21978"
       orientation="1,0"
       id="guide1"
       inkscape:locked="false" /><sodipodi:guide
       position="-11.511917,110.73"
       orientation="0,-1"
       id="guide2"
       inkscape:locked="false" /><sodipodi:guide
       position="166.81319,119.30769"
       orientation="1,0"
       id="guide4"
       inkscape:locked="false" /></sodipodi:namedview><defs
     id="defs1" /><g
     inkscape:label="Layer 1"
     inkscape:groupmode="layer"
     id="layer1"
     transform="translate(-1.1937866,7.3971181)"><rect
       style="fill:#282828;fill-opacity:1;stroke:none;stroke-width:3;stroke-linecap:round;stroke-dasharray:none;stroke-opacity:1;paint-order:stroke fill markers"
       id="rect3"
       width="212.14285"
       height="212.14285"
       x="-7.3971181"
       y="-213.33664"
       transform="rotate(90)"
       rx="24.296705"
       ry="24.296705"
       inkscape:export-filename="fevicon.png"
       inkscape:export-xdpi="96"
       inkscape:export-ydpi="96" /><g
       id="g4"
       transform="translate(0.99670998,-10.218696)"><path
         id="path2"
         style="fill:#fabd2f;fill-opacity:1;stroke:#000000;stroke-width:1;stroke-dasharray:none;stroke-opacity:0"
         d="m 105.56674,34.189491 c -0.007,5.7e-5 -0.0141,4.57e-4 -0.0212,5.17e-4 -2.55673,0.02354 -5.10954,0.211832 -7.643464,0.563789 -0.169608,0.02367 -0.338516,0.05391 -0.50798,0.07906 -8.495773,1.301871 -16.631484,4.428444 -23.880196,9.177218 -0.08535,0.05644 -0.172707,0.107401 -0.257865,0.164331 -0.165853,0.110876 -0.312145,0.234345 -0.476457,0.346232 -2.07457,1.406642 -4.064331,2.941847 -5.958293,4.597136 -0.287805,0.247141 -0.582727,0.489883 -0.864546,0.740523 -13.263611,11.992769 -20.872978,29.292161 -20.88348,47.477205 0.02047,2.677658 0.206021,5.351268 0.555521,8.004678 0.07267,0.55267 0.123321,1.1083 0.209807,1.65881 0.339202,2.12454 0.78351,4.22984 1.331185,6.30763 0.277757,1.07624 0.55453,2.15261 0.885734,3.21324 0.542249,1.71994 1.155869,3.41511 1.839164,5.08083 0.449882,1.11208 0.907162,2.22145 1.417484,3.30728 0.805608,1.69718 1.684646,3.35629 2.634465,4.97231 0.541309,0.93156 1.095717,1.85569 1.684135,2.75952 1.120192,1.71114 2.321041,3.3647 3.59823,4.95474 0.557772,0.69717 1.130485,1.38293 1.719275,2.05672 1.413266,1.61498 2.906461,3.15372 4.473629,4.61006 0.643733,0.5961 1.309681,1.17124 1.981791,1.74097 1.558039,1.33102 3.179045,2.58174 4.857068,3.74758 1.005865,0.68848 2.057099,1.32667 3.114021,1.95802 0.744719,0.44035 1.498328,0.86453 2.260328,1.27227 6.687772,3.60989 14.288595,6.1127 22.774324,7.08381 2.55513,0.29241 5.07643,0.4029 7.56129,0.36432 2.08742,-0.0437 4.17132,-0.19718 6.24355,-0.45992 0.45972,-0.058 0.92342,-0.10262 1.37976,-0.17157 2.67314,-0.41115 5.31698,-1.00396 7.91424,-1.77457 0.18888,-0.057 0.37156,-0.12868 0.55966,-0.18758 2.33201,-0.73665 4.61931,-1.61602 6.84971,-2.63343 0.7496,-0.34467 1.49138,-0.70459 2.22467,-1.08004 1.41379,-0.72421 2.79993,-1.50442 4.1553,-2.33888 16.39935,-10.1341 27.85366,-28.14111 30.02039,-48.49316 0.1906,-1.73387 0.31146,-3.475135 0.36226,-5.219316 0.0249,-0.923121 0.0165,-1.852191 0.003,-2.782259 -0.28416,-7.6336 -1.9086,-15.150888 -4.79454,-22.187276 0,0 -1.09928,-3.026589 -1.79111,-4.472595 -0.403,-0.830886 -0.83855,-1.65161 -1.27847,-2.471167 -1.56733,-2.770259 -3.33522,-5.421222 -5.28857,-7.930265 l -0.0496,0.02584 c -0.6476,-0.890383 -1.31791,-1.762986 -2.01021,-2.616895 l -1.83451,-1.932182 C 138.31918,40.728797 121.94253,34.057808 105.56674,34.189491 Z m 1.0635,5.577954 c 6.06175,0.02669 12.2092,1.125035 18.2113,3.437516 8.30228,3.198697 20.13528,11.52514 22.57536,15.885335 0.13928,0.248886 -1.27019,4.049013 -4.0535,10.928532 -5.48148,13.548649 -5.45384,13.472979 -5.08961,14.051339 0.51405,0.816272 1.01616,0.695839 10.65568,-2.55695 11.2357,-3.791407 9.91609,-3.658132 10.72855,-1.086238 2.24242,7.098492 2.90133,18.131356 1.53272,25.670781 l -0.4563,2.51354 -11.78636,0.1323 c -14.5885,0.16375 -14.3808,0.0946 -12.71757,4.24832 2.77734,6.93608 0.24648,14.29215 -5.97483,17.36689 v -5.1e-4 c -6.31071,3.11892 -13.89196,-0.72726 -15.39493,-7.81038 -0.57945,-2.73083 3.1937,-2.42724 -30.150614,-2.42724 H 55.403398 l -0.604615,-1.65365 c -0.3327,-0.90951 -0.761513,-2.15965 -0.952913,-2.77812 l -0.348299,-1.12448 h 34.336922 c 18.885277,0 34.710827,0.075 35.167877,0.1664 3.50024,0.70005 4.38519,5.62654 0.93793,5.22138 -3.5183,-0.41351 -4.13566,3.81425 -0.80512,5.51336 6.80317,3.47072 11.77568,-6.73259 6.4978,-13.33303 -0.96935,-1.21224 -0.96809,-1.31213 0.0186,-1.89498 1.15434,-0.68189 5.51723,-4.89546 5.96449,-5.76037 0.64435,-1.24605 0.47268,-1.53745 -2.69596,-4.564062 -5.11664,-4.8873 -5.79291,-6.216893 -7.11843,-13.996562 -1.22725,-7.20285 -3.30512,-10.541071 -8.49508,-13.649296 l -1.72496,-1.033012 1.05781,-1.047481 c 7.1667,-7.095435 5.39525,-19.407235 -3.41116,-23.708114 C 97.722596,38.905985 83.861142,57.61779 95.732202,70.09686 c 1.00925,1.060944 1.19483,1.60507 0.54777,1.60507 -3.87044,0 -8.751151,7.569186 -10.024711,15.546338 -0.98768,6.186548 -1.837052,7.786235 -6.661092,12.542903 -3.88363,3.829389 -3.878886,3.762199 -0.510046,7.246589 0.88769,0.91815 1.613825,1.7075 1.613855,1.7539 2.2e-4,0.34038 -28.537145,-0.0958 -28.668535,-0.43822 C 50.951963,105.54559 50.615621,93.87896 51.450151,88.267844 55.7041,59.665569 80.362701,39.65178 106.63024,39.767445 Z m -0.85731,10.592635 c 3.3989,-0.17852 6.93987,1.491362 8.79947,5.392952 2.03439,4.268334 -0.061,9.844476 -4.42867,11.785328 -6.22837,2.767693 -12.929292,-1.460496 -12.899992,-8.139555 0.02422,-5.524469 4.159182,-8.809199 8.529192,-9.038725 z m 46.48399,14.486454 c 1.55122,2.396087 2.98588,4.945023 4.19199,7.46001 -1.63786,0.511026 -3.73442,1.179872 -5.04104,1.620573 -1.49159,0.50309 -2.71198,0.814553 -2.71198,0.691947 0,-0.168894 2.40893,-6.745169 3.56103,-9.77253 z m -45.89436,10.567314 c 8.62977,0 12.16812,3.182048 13.91336,12.511898 1.44892,7.745779 2.65072,10.250782 6.84196,14.262174 l 1.30845,1.25212 -0.59531,0.63407 c -3.57629,3.80678 -11.71281,-3.78822 -12.74031,-11.892293 -0.37714,-2.974606 -1.3546,-4.062066 -3.32021,-3.693315 -4.68167,0.878287 -2.10441,11.416928 4.38268,17.920358 1.82585,1.83045 2.3965,2.54664 2.00349,2.51354 -0.30229,-0.0255 -5.93703,-0.0774 -12.52171,-0.11524 l -11.971882,-0.0687 1.653129,-1.39785 c 7.087343,-5.9928 10.390623,-18.9699 4.828643,-18.9699 -1.671572,0 -2.46124,1.044218 -2.90938,3.84731 -0.77022,4.81769 -2.173093,7.265217 -6.185153,10.79107 -2.74767,2.4147 -3.596559,2.75342 -5.113899,2.04019 -2.36355,-1.111 -2.360238,-1.21003 0.117822,-3.74086 3.7164,-3.795535 4.897735,-6.442534 6.130375,-13.73146 1.47344,-8.712856 5.495379,-12.163082 14.177945,-12.163082 z M 65.455497,125.66608 c 13.076038,-0.0958 39.385183,0.22452 40.642483,0.64337 14.41386,4.80175 16.43449,24.2709 2.91041,28.04222 -8.45211,2.35694 -16.616698,-2.91373 -16.080668,-10.38077 0.43478,-6.05656 8.289318,-9.61387 12.466418,-5.64616 2.57013,2.4413 1.48758,6.35469 -1.36425,4.932 -4.714964,-2.35213 -7.184214,2.96136 -2.5554,5.49888 8.17087,4.47928 14.93518,-6.9391 8.2796,-13.9764 -3.49882,-3.6995 -2.55545,-3.57449 -27.402983,-3.63079 l -20.835421,-0.0475 -1.653646,-2.46445 c -0.9095,-1.35548 -1.653646,-2.58111 -1.653646,-2.72387 0,-0.13614 2.888424,-0.21457 7.247103,-0.24649 z"
         sodipodi:nodetypes="sccccscccccccccccccccccccsccccccccccccccccccssssssssscssccssccccscssssssscccsssssssssssssssccsscsscccssssscsssssssssssssssscccss" /><path
         id="path3"
         style="fill:#fabd2f;fill-opacity:1;stroke:#000000;stroke-width:1;stroke-dasharray:none;stroke-opacity:0"
         d="m 49.226831,180.96696 c 1.905777,1.08321 4.328323,1.84297 7.179443,2.10386 2.05393,0.18794 2.708189,0.19515 25.83707,0.29715 8.652279,0.0382 19.074116,0.10836 23.160056,0.15591 5.64271,0.0657 6.1825,0.0376 9.15539,0.059 l 24.41493,0.0155 28.79877,-9.08031 c 0.25302,-0.15708 0.29249,-0.26815 0.33248,-0.41297 0.0834,-0.3024 0.0316,-0.53178 -0.57101,-0.85994 l -32.18162,-9.60943 -47.285104,0.0431 c -4.284532,0.0137 -6.432949,0.002 -10.299967,0.0186 -25.309219,0.1097 -24.633701,-0.741 -29.365392,2.72285 -5.959699,4.36282 -4.892463,11.29719 0.824954,14.54676 z m 4.825537,-4.39143 c -2.635338,-1.81383 -2.56533,-5.52996 1.417162,-6.67519 0.82548,-0.23738 2.028702,-0.43014 2.674489,-0.42834 l 1.174564,0.003 v 4.06855 4.06852 l -1.77398,-0.0227 c -1.434895,-0.0162 -2.613774,-0.40942 -3.492214,-1.01404 z m 13.214307,1.43507 v -4.53957 c 0,-4.77246 1.09e-4,-3.94428 0,-4.54019 -5e-5,-0.27253 4.296119,-0.0711 8.404683,-0.0698 4.108595,8.6e-4 9.128108,0.0275 11.154347,0 2.02624,-0.0275 4.188707,-0.0148 4.805699,0 1.513913,0.0363 1.394198,-0.28901 1.67402,4.54462 0.302945,5.23284 1.112302,4.71791 -7.331016,4.66227 -3.874196,-0.0255 -9.668061,-0.0485 -12.875621,-0.0515 z m 34.336245,-0.0154 c -0.45052,-0.51669 0.0434,-1.73402 0,-4.47258 v -4.64569 h 3.11941 c 1.96727,-0.003 4.03798,-0.0418 4.11709,0 0.0789,0.042 -0.13887,2.2005 0,4.71281 v 4.56779 l -3.48648,0.10618 c -2.28789,0.0649 -3.2995,0.249 -3.75002,-0.26768 z m 15.53017,0.40869 v -4.69266 -4.74435 l 2.0117,-0.0187 c 9.28434,-0.0678 14.57482,-0.0332 15.09701,0.0989 0.33163,0.0838 2.32881,0.7157 4.43794,1.40392 2.10912,0.68822 5.40591,1.72898 7.32626,2.31276 1.92034,0.58378 3.40057,1.12802 3.28919,1.20954 -0.17911,0.13112 -12.66543,3.60775 -14.6446,4.22529 -1.23988,0.38685 -0.77697,0.20538 -14.19041,0.20538 z"
         sodipodi:nodetypes="sssccccccccscsscscccccccccscsssccccscccccccccccccsscscc" /><path
         style="fill:#282828;fill-opacity:1;stroke:none;stroke-width:0.4;paint-order:stroke fill markers"
         d="m 147.0174,58.373191 c 1.92363,2.051294 3.79907,4.112228 5.12846,6.282369 l 2.53218,4.936152 1.60265,2.468073 c 1.49413,2.504613 2.29858,4.812174 2.95499,7.077437 l -9.15659,4.03434 -12.51099,2.221153 -3.71703,-8.748625 3.85302,-13.734891 z"
         id="path4"
         sodipodi:nodetypes="cccccccccc" /></g><text
       xml:space="preserve"
       style="font-size:20px;line-height:1;font-family:Roboto;-inkscape-font-specification:Roboto;text-align:center;text-decoration:none;text-decoration-line:none;text-decoration-color:#000000;text-anchor:middle;white-space:pre;inline-size:1167.69;fill:#1a1a1a;stroke-width:0.00932226;-inkscape-stroke:none;stop-color:#000000"
       x="-1726.9534"
       y="-838.80591"
       id="text4"
       transform="matrix(23.167234,0,0,23.167234,39653.219,19449.953)" /></g></svg>
